<?xml version="1.0" encoding="utf-8"?>
<!-- Generator: Adobe Illustrator 25.3.1, SVG Export Plug-In . SVG Version: 6.00 Build 0)  -->
<svg version="1.1" id="noun_profile_1256241" xmlns="http://www.w3.org/2000/svg" xmlns:xlink="http://www.w3.org/1999/xlink"
	 x="0px" y="0px" viewBox="0 0 157.7 188.7" style="enable-background:new 0 0 157.7 188.7;" xml:space="preserve">
<style type="text/css">
	.st0{fill:#707070;}
</style>
<path id="Path_212" class="st0" d="M124.5,45.7C124.5,20.4,104.1,0,78.8,0C53.6,0,33.2,20.5,33.2,45.7c0,25.2,20.5,45.7,45.7,45.7
	C104.1,91.4,124.5,70.9,124.5,45.7C124.5,45.7,124.5,45.7,124.5,45.7z"/>
<path id="Path_213" class="st0" d="M78.9,101.4C35.3,101.4,0,136.7,0,180.2v5.8c0,1.4,1.2,2.6,2.7,2.6c1.4,0,2.5-1.2,2.6-2.6v-5.8
	c0-40.7,33-73.6,73.6-73.6c40.6,0,73.6,33,73.6,73.6v5.8c0,1.4,1.2,2.6,2.7,2.6c1.4,0,2.5-1.2,2.6-2.6v-5.8
	C157.7,136.7,122.4,101.4,78.9,101.4z"/>
</svg>
